# xmcd CD database file
#
# Track frame offsets:
#	150
#	12244
#	26066
#	39516
#	53739
#	66742
#	79803
#	93786
#	108340
#	120621
#	132988
#	147201
#	160872
#	174763
#	186595
#	199752
#	213277
#	227501
#
# Disc length: 3212 seconds
#
# Revision: 0
# Processed by: cddbd v1.5.1PL0 Copyright (c) Steve Scherf et al.
# Submitted via: CDex 1.51
#
DISCID=f40c8a12
DTITLE=Mel Torme - The Very Best Of Mel Torme [CDTwo)
DYEAR=2003
DGENRE=Jazz
TTITLE0=Night And Day
TTITLE1=I Can't Give You Anything But Love
TTITLE2=I Got The Sun In The Morning
TTITLE3=Blue Moon
TTITLE4=A Foggy Day
TTITLE5=Until The Real Thing Comes Along
TTITLE6=Fine And Dandy
TTITLE7=Careless Hands
TTITLE8=Three Little Words
TTITLE9=The Day You Came Along
TTITLE10=Again
TTITLE11=Love You Funny Thing
TTITLE12=You're Getting To Be A Habit With Me
TTITLE13=Born To Be Blue
TTITLE14=A Stranger In Town
TTITLE15=It's Easy To Remember
TTITLE16=You're Driving Me Crazy
TTITLE17=Willow Road
EXTD=YEAR: 2003
EXTT0=
EXTT1=
EXTT2=
EXTT3=
EXTT4=
EXTT5=
EXTT6=
EXTT7=
EXTT8=
EXTT9=
EXTT10=
EXTT11=
EXTT12=
EXTT13=
EXTT14=
EXTT15=
EXTT16=
EXTT17=
PLAYORDER=
